<svg xmlns="http://www.w3.org/2000/svg" xmlns:xlink="http://www.w3.org/1999/xlink" width="2382.711" height="1621.582" viewBox="0 0 2382.711 1621.582">
    <defs>
        <radialGradient id="radial-gradient" cx=".5" cy=".5" r=".5" gradientTransform="rotate(109.165 82.513 79.66)" gradientUnits="objectBoundingBox">
            <stop offset="0" stop-color="#fff"/>
            <stop offset=".007" stop-color="#f5f5f5"/>
            <stop offset=".048" stop-color="#c7c7c7"/>
            <stop offset=".093" stop-color="#9c9c9c"/>
            <stop offset=".142" stop-color="#777"/>
            <stop offset=".195" stop-color="#565656"/>
            <stop offset=".254" stop-color="#3b3b3b"/>
            <stop offset=".32" stop-color="#252525"/>
            <stop offset=".397" stop-color="#141414"/>
            <stop offset=".493" stop-color="#080808"/>
            <stop offset=".627" stop-color="#010101"/>
            <stop offset="1"/>
        </radialGradient>
        <radialGradient id="radial-gradient-2" cx=".129" cy="-.291" r="1.8" gradientTransform="matrix(.667 0 0 1 .167 0)" gradientUnits="objectBoundingBox">
            <stop offset="0" stop-color="#282828"/>
            <stop offset=".995" stop-color="#141414"/>
        </radialGradient>
        <radialGradient id="radial-gradient-3" cx=".235" cy="-.019" r="1.093" gradientTransform="matrix(1.076 .116 -.125 .993 -.029 -.018)" xlink:href="#radial-gradient-2"/>
        <clipPath id="clip-path">
            <path id="Rectangle_84" d="M0 0H1451.773V967.848H0z" class="cls-1"/>
        </clipPath>
        <style>
            .cls-1,.cls-11,.cls-8{fill:none}.cls-6{isolation:isolate;opacity:.35;mix-blend-mode:soft-light}.cls-7{clip-path:url(#clip-path)}.cls-11,.cls-8{stroke:#ededf7;stroke-width:3.396px}.cls-8{stroke-linecap:round;stroke-linejoin:round}.cls-11{stroke-miterlimit:10}
        </style>
    </defs>
    <g id="background_header_no_purple_orbs" transform="translate(-8394.986 536.166)">
        <path id="Path_619" d="M-5913.1-6020.388a12.3 12.3 0 0 1-7.582-15.66 12.3 12.3 0 0 1 15.659-7.582 12.3 12.3 0 0 1 7.583 15.66 12.3 12.3 0 0 1-15.66 7.582z" transform="translate(15549.314 6247.895)" style="isolation:isolate;mix-blend-mode:color-dodge" fill="url(#radial-gradient)"/>
        <path id="Rectangle_81" fill="url(#radial-gradient-2)" d="M0 0H1451.773V967.848H0z" transform="translate(8614 -49.03)"/>
        <path id="Path_970" fill="url(#radial-gradient-3)" d="M987.6-262.954c477.487 153.628 551.975 382.549 703.346 891.5s256.786 393.038 431.552 93.1 452.466-773.911 39.928-1195.291S510.115-416.582 987.6-262.954z" transform="translate(8400.453 106.933)"/>
        <path id="Rectangle_82" d="M0 0H1451.773V967.848H0z" class="cls-1" transform="translate(8614 -49.03)"/>
        <path id="Path_971" fill="#fff" d="M298.44-217.68S312.528-.955 630.663 171.555s560.1 616.107 468.241 873.752H-292.377V-229.475z" transform="translate(8687.363 5.695)"/>
        <path id="Rectangle_83" d="M0 0H1451.773V967.848H0z" class="cls-1" transform="translate(8614 -49.03)"/>
        <g id="Group_254" class="cls-6" transform="translate(8614 -49.03)">
            <g id="Group_253" class="cls-7">
                <path id="Path_972" d="M643.683-238.94s187.939 280.189 466 431.345 376.386 482.733 371.9 955.456" class="cls-8" transform="translate(-155.744 57.042)"/>
                <path id="Path_973" d="M1484.8-382.846s146.372 542.175 551.136 652.7" class="cls-8" transform="translate(-361.613 92.264)"/>
                <path id="Path_974" d="M866.084-207.562c307.437 170.584 857.323 442.1 845.374 1203.836" class="cls-8" transform="translate(-210.179 49.362)"/>
            </g>
        </g>
        <path id="Rectangle_85" d="M0 0H1451.773V967.848H0z" class="cls-1" transform="translate(8614 -49.03)"/>
        <g id="Group_260" transform="translate(8614 -49.03)" style="mix-blend-mode:soft-light;isolation:isolate">
            <g id="Group_259" class="cls-7">
                <circle id="Ellipse_48" cx="3.174" cy="3.174" r="3.174" fill="#ededf7" transform="translate(1000.521 125.088)"/>
                <path id="Path_975" d="M1891.29 1072.49a4.507 4.507 0 1 1-4.507-4.507 4.507 4.507 0 0 1 4.507 4.507z" class="cls-11" transform="translate(-458.899 -262.838)"/>
                <path id="Path_976" d="M1858.239 116.782a3.667 3.667 0 1 1-3.667-3.667 3.667 3.667 0 0 1 3.667 3.667z" class="cls-11" transform="translate(-451.221 -29.127)"/>
                <g id="Group_255" transform="translate(704.603 185.712)">
                    <path id="Line_9" d="M0 0L6.401 6.401" class="cls-8"/>
                    <path id="Line_10" d="M6.401 0L0 6.401" class="cls-8"/>
                </g>
                <g id="Group_256" transform="translate(1319.59 168.029)">
                    <path id="Line_11" d="M0 0L6.401 6.401" class="cls-8"/>
                    <path id="Line_12" d="M6.401 0L0 6.401" class="cls-8"/>
                </g>
                <g id="Group_257" transform="translate(1162.016)">
                    <path id="Line_13" d="M0 0L6.401 6.401" class="cls-8"/>
                    <path id="Line_14" d="M6.401 0L0 6.401" class="cls-8"/>
                </g>
                <g id="Group_258" transform="translate(1261.34 891.995)">
                    <path id="Line_15" d="M0 0L6.401 6.401" class="cls-8"/>
                    <path id="Line_16" d="M6.401 0L0 6.401" class="cls-8"/>
                </g>
            </g>
        </g>
        <path id="Rectangle_87" d="M0 0H1451.773V967.848H0z" class="cls-1" transform="translate(8614 -49.03)"/>
        <g id="Group_295" class="cls-6" transform="translate(8614 -49.03)">
            <g id="Group_253-2" class="cls-7">
                <path id="Path_972-2" d="M643.683-238.94s187.939 280.189 466 431.345 376.386 482.733 371.9 955.456" class="cls-8" transform="translate(-155.744 57.042)"/>
                <path id="Path_973-2" d="M1484.8-382.846s146.372 542.175 551.136 652.7" class="cls-8" transform="translate(-361.613 92.264)"/>
                <path id="Path_974-2" d="M866.084-207.562c307.437 170.584 857.323 442.1 845.374 1203.836" class="cls-8" transform="translate(-210.179 49.362)"/>
            </g>
        </g>
    </g>
</svg>
