<svg xmlns="http://www.w3.org/2000/svg" width="1414.88" height="518.399" viewBox="0 0 1414.88 518.399">
    <defs>
        <style>
            .dls-1{fill:#727299}
        </style>
    </defs>
    <g id="hotelbot_pricing_dots" transform="translate(-54.158 -2061.566)">
        <g id="Group_308" transform="translate(115 1399)">
            <g id="Group_261" transform="translate(-60.842 662.566)">
                <path id="Path_977" d="M-68.575 882.451a3.213 3.213 0 0 1-3.213 3.213A3.213 3.213 0 0 1-75 882.451a3.214 3.214 0 0 1 3.214-3.214 3.213 3.213 0 0 1 3.211 3.214z" class="dls-1" transform="translate(75.001 -879.237)"/>
                <path id="Path_978" d="M-16.124 882.451a3.213 3.213 0 0 1-3.213 3.213 3.213 3.213 0 0 1-3.214-3.213 3.214 3.214 0 0 1 3.214-3.214 3.213 3.213 0 0 1 3.213 3.214z" class="dls-1" transform="translate(62.163 -879.237)"/>
                <path id="Path_979" d="M36.328 882.451a3.213 3.213 0 1 1-3.214-3.214 3.213 3.213 0 0 1 3.214 3.214z" class="dls-1" transform="translate(49.325 -879.237)"/>
                <path id="Path_980" d="M88.779 882.451a3.213 3.213 0 1 1-3.214-3.214 3.213 3.213 0 0 1 3.214 3.214z" class="dls-1" transform="translate(36.487 -879.237)"/>
                <path id="Path_981" d="M141.23 882.451a3.213 3.213 0 1 1-3.213-3.214 3.213 3.213 0 0 1 3.213 3.214z" class="dls-1" transform="translate(23.65 -879.237)"/>
            </g>
            <g id="Group_262" transform="translate(-60.842 697.31)">
                <path id="Path_982" d="M-68.575 928.453a3.213 3.213 0 0 1-3.213 3.213A3.213 3.213 0 0 1-75 928.453a3.213 3.213 0 0 1 3.214-3.213 3.213 3.213 0 0 1 3.211 3.213z" class="dls-1" transform="translate(75.001 -925.24)"/>
                <path id="Path_983" d="M-16.124 928.453a3.213 3.213 0 0 1-3.213 3.213 3.213 3.213 0 0 1-3.214-3.213 3.213 3.213 0 0 1 3.214-3.213 3.213 3.213 0 0 1 3.213 3.213z" class="dls-1" transform="translate(62.163 -925.24)"/>
                <path id="Path_984" d="M36.328 928.453a3.213 3.213 0 1 1-3.214-3.213 3.213 3.213 0 0 1 3.214 3.213z" class="dls-1" transform="translate(49.325 -925.24)"/>
                <path id="Path_985" d="M88.779 928.453a3.213 3.213 0 1 1-3.214-3.213 3.213 3.213 0 0 1 3.214 3.213z" class="dls-1" transform="translate(36.487 -925.24)"/>
                <path id="Path_986" d="M141.23 928.453a3.213 3.213 0 1 1-3.213-3.213 3.213 3.213 0 0 1 3.213 3.213z" class="dls-1" transform="translate(23.65 -925.24)"/>
            </g>
            <g id="Group_263" transform="translate(-60.842 732.052)">
                <path id="Path_987" d="M-68.575 974.455a3.213 3.213 0 0 1-3.213 3.214A3.214 3.214 0 0 1-75 974.455a3.213 3.213 0 0 1 3.214-3.213 3.213 3.213 0 0 1 3.211 3.213z" class="dls-1" transform="translate(75.001 -971.242)"/>
                <path id="Path_988" d="M-16.124 974.455a3.213 3.213 0 0 1-3.213 3.214 3.214 3.214 0 0 1-3.214-3.214 3.213 3.213 0 0 1 3.214-3.213 3.213 3.213 0 0 1 3.213 3.213z" class="dls-1" transform="translate(62.163 -971.242)"/>
                <path id="Path_989" d="M36.328 974.455a3.213 3.213 0 1 1-3.214-3.213 3.214 3.214 0 0 1 3.214 3.213z" class="dls-1" transform="translate(49.325 -971.242)"/>
                <path id="Path_990" d="M88.779 974.455a3.213 3.213 0 1 1-3.214-3.213 3.214 3.214 0 0 1 3.214 3.213z" class="dls-1" transform="translate(36.487 -971.242)"/>
                <path id="Path_991" d="M141.23 974.455a3.213 3.213 0 1 1-3.213-3.213 3.213 3.213 0 0 1 3.213 3.213z" class="dls-1" transform="translate(23.65 -971.242)"/>
            </g>
            <g id="Group_264" transform="translate(-60.842 766.795)">
                <path id="Path_992" d="M-68.575 1020.458a3.213 3.213 0 0 1-3.213 3.213 3.213 3.213 0 0 1-3.212-3.213 3.214 3.214 0 0 1 3.214-3.214 3.213 3.213 0 0 1 3.211 3.214z" class="dls-1" transform="translate(75.001 -1017.244)"/>
                <path id="Path_993" d="M-16.124 1020.458a3.213 3.213 0 0 1-3.213 3.213 3.213 3.213 0 0 1-3.214-3.213 3.214 3.214 0 0 1 3.214-3.214 3.213 3.213 0 0 1 3.213 3.214z" class="dls-1" transform="translate(62.163 -1017.244)"/>
                <path id="Path_994" d="M36.328 1020.458a3.213 3.213 0 1 1-3.214-3.214 3.213 3.213 0 0 1 3.214 3.214z" class="dls-1" transform="translate(49.325 -1017.244)"/>
                <path id="Path_995" d="M88.779 1020.458a3.213 3.213 0 1 1-3.214-3.214 3.213 3.213 0 0 1 3.214 3.214z" class="dls-1" transform="translate(36.487 -1017.244)"/>
                <path id="Path_996" d="M141.23 1020.458a3.213 3.213 0 1 1-3.213-3.214 3.213 3.213 0 0 1 3.213 3.214z" class="dls-1" transform="translate(23.65 -1017.244)"/>
            </g>
            <g id="Group_265" transform="translate(-60.842 801.538)">
                <path id="Path_997" d="M-68.575 1066.46a3.213 3.213 0 0 1-3.213 3.214A3.214 3.214 0 0 1-75 1066.46a3.213 3.213 0 0 1 3.214-3.213 3.213 3.213 0 0 1 3.211 3.213z" class="dls-1" transform="translate(75.001 -1063.247)"/>
                <path id="Path_998" d="M-16.124 1066.46a3.213 3.213 0 0 1-3.213 3.214 3.214 3.214 0 0 1-3.214-3.214 3.213 3.213 0 0 1 3.214-3.213 3.213 3.213 0 0 1 3.213 3.213z" class="dls-1" transform="translate(62.163 -1063.247)"/>
                <path id="Path_999" d="M36.328 1066.46a3.213 3.213 0 1 1-3.214-3.213 3.214 3.214 0 0 1 3.214 3.213z" class="dls-1" transform="translate(49.325 -1063.247)"/>
                <path id="Path_1000" d="M88.779 1066.46a3.213 3.213 0 1 1-3.214-3.213 3.214 3.214 0 0 1 3.214 3.213z" class="dls-1" transform="translate(36.487 -1063.247)"/>
                <path id="Path_1001" d="M141.23 1066.46a3.213 3.213 0 1 1-3.213-3.213 3.213 3.213 0 0 1 3.213 3.213z" class="dls-1" transform="translate(23.65 -1063.247)"/>
            </g>
        </g>
        <g id="Group_309" transform="translate(1365 1772)">
            <g id="Group_261-2" transform="translate(-60.842 662.566)">
                <path id="Path_977-2" d="M-68.575 882.451a3.213 3.213 0 0 1-3.213 3.213A3.213 3.213 0 0 1-75 882.451a3.214 3.214 0 0 1 3.214-3.214 3.213 3.213 0 0 1 3.211 3.214z" class="dls-1" transform="translate(75.001 -879.237)"/>
                <path id="Path_978-2" d="M-16.124 882.451a3.213 3.213 0 0 1-3.213 3.213 3.213 3.213 0 0 1-3.214-3.213 3.214 3.214 0 0 1 3.214-3.214 3.213 3.213 0 0 1 3.213 3.214z" class="dls-1" transform="translate(62.163 -879.237)"/>
                <path id="Path_979-2" d="M36.328 882.451a3.213 3.213 0 1 1-3.214-3.214 3.213 3.213 0 0 1 3.214 3.214z" class="dls-1" transform="translate(49.325 -879.237)"/>
                <path id="Path_980-2" d="M88.779 882.451a3.213 3.213 0 1 1-3.214-3.214 3.213 3.213 0 0 1 3.214 3.214z" class="dls-1" transform="translate(36.487 -879.237)"/>
                <path id="Path_981-2" d="M141.23 882.451a3.213 3.213 0 1 1-3.213-3.214 3.213 3.213 0 0 1 3.213 3.214z" class="dls-1" transform="translate(23.65 -879.237)"/>
            </g>
            <g id="Group_262-2" transform="translate(-60.842 697.31)">
                <path id="Path_982-2" d="M-68.575 928.453a3.213 3.213 0 0 1-3.213 3.213A3.213 3.213 0 0 1-75 928.453a3.213 3.213 0 0 1 3.214-3.213 3.213 3.213 0 0 1 3.211 3.213z" class="dls-1" transform="translate(75.001 -925.24)"/>
                <path id="Path_983-2" d="M-16.124 928.453a3.213 3.213 0 0 1-3.213 3.213 3.213 3.213 0 0 1-3.214-3.213 3.213 3.213 0 0 1 3.214-3.213 3.213 3.213 0 0 1 3.213 3.213z" class="dls-1" transform="translate(62.163 -925.24)"/>
                <path id="Path_984-2" d="M36.328 928.453a3.213 3.213 0 1 1-3.214-3.213 3.213 3.213 0 0 1 3.214 3.213z" class="dls-1" transform="translate(49.325 -925.24)"/>
                <path id="Path_985-2" d="M88.779 928.453a3.213 3.213 0 1 1-3.214-3.213 3.213 3.213 0 0 1 3.214 3.213z" class="dls-1" transform="translate(36.487 -925.24)"/>
                <path id="Path_986-2" d="M141.23 928.453a3.213 3.213 0 1 1-3.213-3.213 3.213 3.213 0 0 1 3.213 3.213z" class="dls-1" transform="translate(23.65 -925.24)"/>
            </g>
            <g id="Group_263-2" transform="translate(-60.842 732.052)">
                <path id="Path_987-2" d="M-68.575 974.455a3.213 3.213 0 0 1-3.213 3.214A3.214 3.214 0 0 1-75 974.455a3.213 3.213 0 0 1 3.214-3.213 3.213 3.213 0 0 1 3.211 3.213z" class="dls-1" transform="translate(75.001 -971.242)"/>
                <path id="Path_988-2" d="M-16.124 974.455a3.213 3.213 0 0 1-3.213 3.214 3.214 3.214 0 0 1-3.214-3.214 3.213 3.213 0 0 1 3.214-3.213 3.213 3.213 0 0 1 3.213 3.213z" class="dls-1" transform="translate(62.163 -971.242)"/>
                <path id="Path_989-2" d="M36.328 974.455a3.213 3.213 0 1 1-3.214-3.213 3.214 3.214 0 0 1 3.214 3.213z" class="dls-1" transform="translate(49.325 -971.242)"/>
                <path id="Path_990-2" d="M88.779 974.455a3.213 3.213 0 1 1-3.214-3.213 3.214 3.214 0 0 1 3.214 3.213z" class="dls-1" transform="translate(36.487 -971.242)"/>
                <path id="Path_991-2" d="M141.23 974.455a3.213 3.213 0 1 1-3.213-3.213 3.213 3.213 0 0 1 3.213 3.213z" class="dls-1" transform="translate(23.65 -971.242)"/>
            </g>
            <g id="Group_264-2" transform="translate(-60.842 766.795)">
                <path id="Path_992-2" d="M-68.575 1020.458a3.213 3.213 0 0 1-3.213 3.213 3.213 3.213 0 0 1-3.212-3.213 3.214 3.214 0 0 1 3.214-3.214 3.213 3.213 0 0 1 3.211 3.214z" class="dls-1" transform="translate(75.001 -1017.244)"/>
                <path id="Path_993-2" d="M-16.124 1020.458a3.213 3.213 0 0 1-3.213 3.213 3.213 3.213 0 0 1-3.214-3.213 3.214 3.214 0 0 1 3.214-3.214 3.213 3.213 0 0 1 3.213 3.214z" class="dls-1" transform="translate(62.163 -1017.244)"/>
                <path id="Path_994-2" d="M36.328 1020.458a3.213 3.213 0 1 1-3.214-3.214 3.213 3.213 0 0 1 3.214 3.214z" class="dls-1" transform="translate(49.325 -1017.244)"/>
                <path id="Path_995-2" d="M88.779 1020.458a3.213 3.213 0 1 1-3.214-3.214 3.213 3.213 0 0 1 3.214 3.214z" class="dls-1" transform="translate(36.487 -1017.244)"/>
                <path id="Path_996-2" d="M141.23 1020.458a3.213 3.213 0 1 1-3.213-3.214 3.213 3.213 0 0 1 3.213 3.214z" class="dls-1" transform="translate(23.65 -1017.244)"/>
            </g>
            <g id="Group_265-2" transform="translate(-60.842 801.538)">
                <path id="Path_997-2" d="M-68.575 1066.46a3.213 3.213 0 0 1-3.213 3.214A3.214 3.214 0 0 1-75 1066.46a3.213 3.213 0 0 1 3.214-3.213 3.213 3.213 0 0 1 3.211 3.213z" class="dls-1" transform="translate(75.001 -1063.247)"/>
                <path id="Path_998-2" d="M-16.124 1066.46a3.213 3.213 0 0 1-3.213 3.214 3.214 3.214 0 0 1-3.214-3.214 3.213 3.213 0 0 1 3.214-3.213 3.213 3.213 0 0 1 3.213 3.213z" class="dls-1" transform="translate(62.163 -1063.247)"/>
                <path id="Path_999-2" d="M36.328 1066.46a3.213 3.213 0 1 1-3.214-3.213 3.214 3.214 0 0 1 3.214 3.213z" class="dls-1" transform="translate(49.325 -1063.247)"/>
                <path id="Path_1000-2" d="M88.779 1066.46a3.213 3.213 0 1 1-3.214-3.213 3.214 3.214 0 0 1 3.214 3.213z" class="dls-1" transform="translate(36.487 -1063.247)"/>
                <path id="Path_1001-2" d="M141.23 1066.46a3.213 3.213 0 1 1-3.213-3.213 3.213 3.213 0 0 1 3.213 3.213z" class="dls-1" transform="translate(23.65 -1063.247)"/>
            </g>
        </g>
    </g>
</svg>
