<svg xmlns="http://www.w3.org/2000/svg" width="635.504" height="692.504" viewBox="0 0 635.504 692.504">
    <defs>
        <linearGradient id="linear-gradient" x1=".205" x2=".769" y1="-.581" y2="1.485" gradientUnits="objectBoundingBox">
            <stop offset="0" stop-color="#dbdee0"/>
            <stop offset=".397" stop-color="#d8dbdd"/>
            <stop offset=".607" stop-color="#d0d3d6"/>
            <stop offset=".773" stop-color="#c3c6c9"/>
            <stop offset=".916" stop-color="#b1b3b7"/>
            <stop offset="1" stop-color="#a2a4a9"/>
        </linearGradient>
        <style>
            .class-5{fill:#fff}.class-6{fill:#3c3c3b}.class-8{fill:#42f5ff}.class-10{fill:#333}
        </style>
    </defs>
    <g id="phone_bot_hi_" transform="translate(-3199.556 -1054.569)">
        <ellipse id="Ellipse_25" cx="317.752" cy="346.252" fill="#fff" opacity="0.1" rx="317.752" ry="346.252" transform="translate(3199.556 1054.569)"/>
        <rect id="Rectangle_59" width="589.294" height="298.831" fill="url(#linear-gradient)" rx="65.175" transform="rotate(90 1255.935 2399.288)"/>
        <path id="Rectangle_60" fill="#1a1a1a" d="M50.408 0H238.57a50.407 50.407 0 0 1 50.407 50.407V525.35a50.408 50.408 0 0 1-50.408 50.408H50.407A50.407 50.407 0 0 1 0 525.35V50.408A50.408 50.408 0 0 1 50.408 0z" transform="translate(3361.319 1150.121)"/>
        <path id="Rectangle_61" fill="#727299" d="M38.056 0H233.2a38.055 38.055 0 0 1 38.055 38.055v452.073a38.056 38.056 0 0 1-38.055 38.056H38.056A38.056 38.056 0 0 1 0 490.128V38.056A38.056 38.056 0 0 1 38.056 0z" transform="translate(3370.182 1177.573)"/>
        <path id="Rectangle_62" d="M99.122 0a99.122 99.122 0 0 1 99.122 99.122 33.764 33.764 0 0 1-33.764 33.764H33.764A33.764 33.764 0 0 1 0 99.122 99.122 99.122 0 0 1 99.122 0z" class="class-5" transform="translate(3406.685 1494.407)"/>
        <path id="Path_876" d="M1036.167 854.909v71.022c13.128 0 23.771-15.9 23.771-35.511s-10.643-35.511-23.771-35.511z" class="class-6" transform="translate(2557.56 526.354)"/>
        <path id="Path_877" d="M549.484 925.931v-71.022c-13.128 0-23.771 15.9-23.771 35.511s10.643 35.511 23.771 35.511z" class="class-6" transform="translate(2868.405 526.354)"/>
        <path id="Path_878" d="M612.234 861.982a98.479 98.479 0 0 1 13.211-180.076 23.23 23.23 0 0 1 22.05-15.924h21.082a23.23 23.23 0 0 1 22.05 15.924 98.461 98.461 0 1 1-78.392 180.076" class="class-5" transform="translate(2847.773 641.403)"/>
        <path id="Path_879" d="M797.451 574.6v-36.853a11.2 11.2 0 1 0-7.129 0V574.6z" class="class-6" transform="translate(2711.921 732.783)"/>
        <circle id="Ellipse_26" cx="85.749" cy="85.749" r="85.749" class="class-6" transform="rotate(-45 3400.687 -3377.852)"/>
        <rect id="Rectangle_63" width="122.219" height="47.753" fill="#1d1d1b" rx="23.876" transform="translate(3444.698 1367.546)"/>
        <g id="Group_181" transform="translate(3448.694 1370.45)">
            <g id="Group_180">
                <circle id="Ellipse_27" cx="14.851" cy="14.851" r="14.851" class="class-8" transform="rotate(-80.12 57.733 -28.721)"/>
                <circle id="Ellipse_28" cx="14.851" cy="14.851" r="14.851" class="class-8" transform="rotate(-45 25.352 10.501)"/>
            </g>
        </g>
        <path id="Path_880" d="M789.5 1006.161a5.53 5.53 0 0 1 5.432 6.557 35.048 35.048 0 0 1-68.855 0 5.529 5.529 0 0 1 5.432-6.557z" class="class-8" transform="translate(2746.454 434.248)"/>
        <g id="Group_184" transform="translate(3395.282 1297.138)">
            <path id="Path_881" d="M746.658 753.385a3.082 3.082 0 0 1-3.082-3.082 104.361 104.361 0 1 0-208.722 0 3.082 3.082 0 0 1-6.164 0 110.525 110.525 0 1 1 221.051 0 3.082 3.082 0 0 1-3.083 3.082z" class="class-6" transform="translate(-528.69 -639.778)"/>
        </g>
        <g id="Group_185" transform="translate(3502.726 1413.692)">
            <path id="Path_882" d="M806.534 1051.446a3.082 3.082 0 1 1 0-6.164A104.36 104.36 0 0 0 910.9 940.92a3.082 3.082 0 0 1 6.164 0 110.525 110.525 0 0 1-110.525 110.525z" class="class-6" transform="translate(-803.452 -937.838)"/>
        </g>
        <path id="Path_883" fill="#fff" stroke="#dbdbdb" d="M1164.689 378.518H1046.9a13.827 13.827 0 0 0-13.811 13.812v88.925l-6.474 23.57 23.906-5.649h114.173a13.827 13.827 0 0 0 13.812-13.812V392.33a13.827 13.827 0 0 0-13.817-13.812z" transform="translate(2563.379 816.457)"/>
        <g id="Group_189" transform="translate(3636.149 1226.798)">
            <path id="Path_884" d="M1155.4 466.409V481.6h23.188v-15.191a7.1 7.1 0 0 1 1.465-4.884 4.936 4.936 0 0 1 3.853-1.628 5.12 5.12 0 0 1 3.925 1.609 6.976 6.976 0 0 1 1.5 4.9v41.784a6.988 6.988 0 0 1-1.519 4.92 5.1 5.1 0 0 1-3.907 1.628 4.9 4.9 0 0 1-3.87-1.646 7.233 7.233 0 0 1-1.447-4.9v-17.836H1155.4v17.834a6.988 6.988 0 0 1-1.519 4.92 5.1 5.1 0 0 1-3.907 1.628 4.9 4.9 0 0 1-3.871-1.646 7.234 7.234 0 0 1-1.447-4.9v-41.783a7.22 7.22 0 0 1 1.429-4.884 4.907 4.907 0 0 1 3.889-1.628 5.121 5.121 0 0 1 3.925 1.609 6.977 6.977 0 0 1 1.501 4.903z" class="class-10" transform="translate(-1144.654 -459.898)"/>
            <path id="Path_885" d="M1289.519 508.19v-41.781a7.039 7.039 0 0 1 1.483-4.884 4.949 4.949 0 0 1 3.834-1.628 5.121 5.121 0 0 1 3.925 1.609 6.978 6.978 0 0 1 1.5 4.9v41.784a7.046 7.046 0 0 1-1.5 4.92 5.091 5.091 0 0 1-3.925 1.628 4.94 4.94 0 0 1-3.817-1.646 7.055 7.055 0 0 1-1.5-4.902z" class="class-10" transform="translate(-1232.871 -459.898)"/>
        </g>
    </g>
</svg>
